<svg width="384" height="121" viewBox="0 0 384 121" fill="none" xmlns="http://www.w3.org/2000/svg">
<path d="M353.345 60.2442L335.365 87.7157H348.482L359.73 70.623L362.925 65.768L366.536 60.2811L362.925 54.7941L359.711 49.9106L348.482 32.8464H335.365L353.345 60.2442Z" fill="url(#paint0_linear_3806_44312)"/>
<path d="M384 32.8464H370.883L360.926 48.0547L367.516 58.068L384 32.8464Z" fill="url(#paint1_linear_3806_44312)"/>
<path d="M370.883 87.7157H384L367.521 62.4347L360.926 72.4565C360.926 73.1185 371.313 87.0301 370.883 87.7157Z" fill="url(#paint2_linear_3806_44312)"/>
<path d="M384 32.8464H370.883L360.927 48.0547L367.516 58.068L384 32.8464Z" fill="url(#paint3_linear_3806_44312)"/>
<path d="M370.883 87.7157H384L367.521 62.4347L360.927 72.4565C360.927 73.1185 371.313 87.0301 370.883 87.7157Z" fill="url(#paint4_linear_3806_44312)"/>
<path d="M138.27 77.1557V44.2129H150.89C153.164 44.2129 155.171 44.6109 156.913 45.4068C158.684 46.2027 160.072 47.3819 161.076 48.9443C162.079 50.5067 162.581 52.4375 162.581 54.7369C162.581 56.9773 162.065 58.8934 161.031 60.4853C159.998 62.0477 158.61 63.2268 156.869 64.0228L164.397 77.1557H156.692L150.005 65.2167H145.134V77.1557H138.27ZM145.134 59.2472H150.935C151.909 59.2472 152.75 59.0556 153.459 58.6723C154.167 58.2891 154.714 57.7585 155.097 57.0805C155.511 56.4025 155.717 55.6213 155.717 54.7369C155.717 53.823 155.511 53.0271 155.097 52.3491C154.714 51.6711 154.167 51.1405 153.459 50.7572C152.75 50.374 151.909 50.1824 150.935 50.1824H145.134V59.2472Z" fill="white"/>
<path d="M185.979 77.7218C183.564 77.7218 181.32 77.2934 179.25 76.4366C177.179 75.5799 175.367 74.3833 173.814 72.8471C172.29 71.2813 171.097 69.4643 170.234 67.3962C169.371 65.3282 168.94 63.0829 168.94 60.6603C168.94 58.2377 169.357 55.9924 170.191 53.9243C171.054 51.8562 172.247 50.0541 173.771 48.5178C175.324 46.9815 177.136 45.785 179.207 44.9282C181.277 44.0715 183.535 43.6431 185.979 43.6431C188.424 43.6431 190.681 44.0715 192.752 44.9282C194.823 45.785 196.62 46.9815 198.144 48.5178C199.697 50.0541 200.891 51.8562 201.725 53.9243C202.587 55.9924 203.019 58.2377 203.019 60.6603C203.019 63.0829 202.587 65.3282 201.725 67.3962C200.862 69.4643 199.654 71.2813 198.101 72.8471C196.577 74.3833 194.779 75.5799 192.709 76.4366C190.638 77.2934 188.395 77.7218 185.979 77.7218ZM185.979 71.5176C187.446 71.5176 188.798 71.2517 190.034 70.7199C191.3 70.1881 192.407 69.4495 193.356 68.5041C194.305 67.5292 195.038 66.377 195.556 65.0475C196.074 63.7181 196.332 62.2556 196.332 60.6603C196.332 59.0649 196.074 57.6173 195.556 56.3173C195.038 54.9879 194.305 53.8357 193.356 52.8607C192.407 51.8858 191.3 51.1472 190.034 50.6449C188.798 50.1131 187.446 49.8473 185.979 49.8473C184.513 49.8473 183.147 50.1131 181.881 50.6449C180.645 51.1472 179.552 51.8858 178.603 52.8607C177.654 53.8357 176.92 54.9879 176.403 56.3173C175.885 57.6173 175.626 59.0649 175.626 60.6603C175.626 62.2556 175.885 63.7181 176.403 65.0475C176.92 66.377 177.654 67.5292 178.603 68.5041C179.552 69.4495 180.645 70.1881 181.881 70.7199C183.147 71.2517 184.513 71.5176 185.979 71.5176Z" fill="white"/>
<path d="M221.536 77.7218C219.397 77.7218 217.38 77.3525 215.486 76.6139C213.622 75.8458 212.002 74.7674 210.627 73.3789C209.282 71.9903 208.274 70.3506 207.602 68.4598L213.423 65.9338C214.279 67.736 215.455 69.1541 216.953 70.1881C218.48 71.2222 220.161 71.7392 221.995 71.7392C222.972 71.7392 223.813 71.5915 224.516 71.296C225.218 71.0006 225.768 70.6017 226.166 70.0995C226.563 69.5677 226.762 68.9473 226.762 68.2382C226.762 67.4701 226.517 66.8201 226.028 66.2884C225.539 65.727 224.775 65.2839 223.736 64.9589L217.044 62.8317C214.325 61.975 212.277 60.7637 210.902 59.1979C209.527 57.6025 208.839 55.6969 208.839 53.4811C208.839 51.5312 209.328 49.8177 210.306 48.3405C211.315 46.8633 212.705 45.7111 214.477 44.8839C216.28 44.0567 218.343 43.6431 220.665 43.6431C222.713 43.6431 224.607 43.9828 226.349 44.6623C228.091 45.3418 229.588 46.302 230.841 47.5428C232.125 48.7837 233.087 50.2756 233.729 52.0187L227.953 54.5447C227.312 53.0084 226.349 51.8119 225.066 50.9551C223.782 50.0688 222.315 49.6257 220.665 49.6257C219.718 49.6257 218.878 49.7734 218.144 50.0688C217.411 50.3643 216.846 50.7927 216.448 51.354C216.051 51.8858 215.852 52.5062 215.852 53.2152C215.852 53.9834 216.112 54.6629 216.632 55.2538C217.151 55.8151 217.93 56.2583 218.969 56.5832L225.524 58.6218C228.274 59.4785 230.322 60.675 231.666 62.2113C233.041 63.7476 233.729 65.6236 233.729 67.8394C233.729 69.7597 233.209 71.4733 232.17 72.98C231.131 74.4572 229.695 75.6242 227.862 76.481C226.059 77.3082 223.95 77.7218 221.536 77.7218Z" fill="white"/>
<path d="M238.234 77.1557V44.2129H260.953V50.1824H245.262V57.6553H260.046V63.6248H245.262V71.1862H260.953V77.1557H238.234Z" fill="white"/>
<path d="M282.536 77.7218C280.12 77.7218 277.877 77.2934 275.806 76.4366C273.736 75.5799 271.924 74.3833 270.371 72.8471C268.847 71.2812 267.653 69.4643 266.791 67.3962C265.928 65.3282 265.496 63.0829 265.496 60.6603C265.496 58.2377 265.913 55.9924 266.747 53.9243C267.61 51.8562 268.804 50.0541 270.328 48.5178C271.881 46.9815 273.693 45.785 275.763 44.9282C277.834 44.0715 280.091 43.6431 282.536 43.6431C284.98 43.6431 287.238 44.0715 289.308 44.9282C291.379 45.785 293.176 46.9815 294.701 48.5178C296.254 50.0541 297.447 51.8562 298.281 53.9243C299.144 55.9924 299.575 58.2377 299.575 60.6603C299.575 63.0829 299.144 65.3282 298.281 67.3962C297.418 69.4643 296.21 71.2812 294.657 72.8471C293.133 74.3833 291.336 75.5799 289.265 76.4366C287.195 77.2934 284.952 77.7218 282.536 77.7218ZM282.536 71.5176C284.003 71.5176 285.354 71.2517 286.591 70.7199C287.856 70.1881 288.963 69.4495 289.912 68.5041C290.861 67.5292 291.595 66.377 292.112 65.0475C292.63 63.718 292.889 62.2556 292.889 60.6603C292.889 59.0649 292.63 57.6173 292.112 56.3173C291.595 54.9879 290.861 53.8357 289.912 52.8607C288.963 51.8858 287.856 51.1472 286.591 50.6449C285.354 50.1131 284.003 49.8473 282.536 49.8473C281.069 49.8473 279.703 50.1131 278.438 50.6449C277.201 51.1472 276.108 51.8858 275.159 52.8607C274.21 53.8357 273.477 54.9879 272.959 56.3173C272.442 57.6173 272.183 59.0649 272.183 60.6603C272.183 62.2556 272.442 63.718 272.959 65.0475C273.477 66.377 274.21 67.5292 275.159 68.5041C276.108 69.4495 277.201 70.1881 278.438 70.7199C279.703 71.2517 281.069 71.5176 282.536 71.5176Z" fill="white"/>
<path d="M304.649 78.1979V44.9219H309.643L323.742 64.6945V44.9219H330.246V78.1979H325.211L311.153 57.9806V78.1979H304.649Z" fill="white"/>
<path d="M84.0822 27.3749C84.1663 26.6007 84.1999 25.822 84.1827 25.0435C84.1827 18.5876 81.6182 12.3962 77.0532 7.8312C72.4882 3.26624 66.2968 0.70166 59.8409 0.70166C53.3851 0.70166 47.1936 3.26624 42.6286 7.8312C38.0637 12.3962 35.4991 18.5876 35.4991 25.0435C35.4798 25.822 35.5133 26.6009 35.5997 27.3749V27.6797C37.6294 46.9502 59.8409 60.5429 59.8409 60.5429C59.8409 60.5429 82.0524 46.7459 83.9817 27.7834L84.0822 27.3749Z" fill="#FB90B7"/>
<path d="M35.5989 93.7085C35.515 94.4826 35.4814 95.2615 35.4984 96.0399C35.4984 102.496 38.063 108.687 42.628 113.252C47.193 117.817 53.3844 120.382 59.8403 120.382C66.2961 120.382 72.4876 117.817 77.0525 113.252C81.6175 108.687 84.1821 102.496 84.1821 96.0399C84.2015 95.2615 84.1678 94.4825 84.0816 93.7085V93.4037C82.0517 74.1333 59.8403 60.5405 59.8403 60.5405C59.8403 60.5405 37.6288 74.3343 35.7027 93.2902L35.5989 93.7085Z" fill="#FFB1C4"/>
<path d="M93.0061 84.7854C93.7803 84.8695 94.559 84.903 95.3374 84.886C101.793 84.886 107.985 82.3214 112.55 77.7564C117.115 73.1915 119.679 67 119.679 60.5441C119.679 54.0882 117.115 47.8969 112.55 43.3319C107.985 38.7668 101.793 36.2024 95.3374 36.2024C94.559 36.1829 93.78 36.2165 93.0061 36.3029H92.7013C73.4308 38.3327 59.838 60.5441 59.838 60.5441C59.838 60.5441 73.6319 82.7557 92.5877 84.6816L93.0061 84.7854Z" fill="#FC92B2"/>
<path d="M26.6731 36.3033C25.8989 36.2192 25.1202 36.1857 24.3417 36.2028C17.8859 36.2028 11.6944 38.7673 7.12942 43.3323C2.56445 47.8974 -0.00012207 54.0887 -0.00012207 60.5446C-0.00012207 67.0005 2.56445 73.1918 7.12942 77.7569C11.6944 82.3219 17.8859 84.8865 24.3417 84.8865C25.1202 84.9058 25.8992 84.8722 26.6731 84.7859H26.978C46.2484 82.7561 59.8412 60.5446 59.8412 60.5446C59.8412 60.5446 46.0441 38.3169 27.0816 36.4038L26.6731 36.3033Z" fill="#FF9BB3"/>
<path d="M19.2471 66.8501C18.6395 67.3385 18.0643 67.8661 17.5252 68.4292C13.0878 73.0203 10.6318 79.1709 10.6868 85.5557C10.7417 91.9403 13.303 98.0479 17.8187 102.562C22.3343 107.076 28.4428 109.635 34.8276 109.687C41.2124 109.74 47.3621 107.282 51.9514 102.843C52.5163 102.305 53.0438 101.73 53.5305 101.121L53.7445 100.907C65.9366 85.845 59.8405 60.5304 59.8405 60.5304C59.8405 60.5304 34.3703 54.5901 19.6069 66.6394L19.2471 66.8501Z" fill="#FFB1C4"/>
<path d="M59.8317 60.5282C59.2749 60.4002 34.2063 54.7243 19.6075 66.6394L19.2477 66.8501C18.6401 67.3385 18.0649 67.8661 17.5258 68.4293C14.1674 71.9039 11.944 76.272 11.0851 80.9589C15.0016 83.5019 19.6003 84.8852 24.3417 84.8852C25.1202 84.9045 25.8991 84.871 26.673 84.7846H26.9778C46.2484 82.7549 59.8411 60.5433 59.8411 60.5433C59.8411 60.5433 59.838 60.5382 59.8317 60.5282Z" fill="#FF749E"/>
<path d="M59.843 60.5422C59.8412 60.5412 59.8403 60.5405 59.8403 60.5405C59.8403 60.5405 37.6288 74.3343 35.7027 93.2902L35.5991 93.7085C35.515 94.4826 35.4814 95.2615 35.4984 96.0399C35.4984 100.778 36.88 105.374 39.42 109.289C44.108 108.429 48.4768 106.204 51.9512 102.843C52.516 102.305 53.0435 101.73 53.5303 101.121L53.7443 100.907C65.7871 86.0297 59.9868 61.149 59.843 60.5422Z" fill="#FE6E99"/>
<path d="M66.1475 101.137C66.6359 101.744 67.1634 102.32 67.7266 102.859C72.3175 107.296 78.4681 109.752 84.8529 109.697C91.2377 109.642 97.3452 107.081 101.859 102.565C106.373 98.0494 108.932 91.9409 108.985 85.5562C109.037 79.1715 106.579 73.0217 102.14 68.4324C101.602 67.8676 101.027 67.34 100.418 66.8533L100.204 66.6392C85.1423 54.4473 59.8278 60.5433 59.8278 60.5433C59.8278 60.5433 53.8743 86.0038 65.9237 100.777L66.1475 101.137Z" fill="#FC92B2"/>
<path d="M67.7266 102.859C67.1634 102.32 66.636 101.745 66.1475 101.137L65.9237 100.777C53.9785 86.1319 59.7262 60.9831 59.8264 60.5495C59.8359 60.5436 59.8408 60.5405 59.8408 60.5405C59.8408 60.5405 82.0522 74.1333 84.0821 93.4037V93.7086C84.1683 94.4825 84.2018 95.2615 84.1825 96.0399C84.1825 100.782 82.7986 105.382 80.2543 109.299C75.5682 108.44 71.2008 106.217 67.7266 102.859Z" fill="#FF5E9C"/>
<path fill-rule="evenodd" clip-rule="evenodd" d="M95.3374 84.8853C94.559 84.9023 93.7803 84.8687 93.0061 84.7846L92.5877 84.6809C73.6319 82.7549 59.838 60.5434 59.838 60.5434C59.838 60.5434 59.8386 60.5425 59.8398 60.5406C60.45 60.396 85.3283 54.5974 100.204 66.6393L100.419 66.8534C101.028 67.3401 101.603 67.8676 102.14 68.4325C105.501 71.9069 107.726 76.2757 108.587 80.9637C104.672 83.5037 100.076 84.8853 95.3374 84.8853Z" fill="#FF5194"/>
<path d="M100.435 54.2302C101.042 53.7417 101.618 53.2143 102.157 52.6511C106.718 48.0851 109.279 41.8947 109.277 35.4409C109.275 28.987 106.711 22.7981 102.147 18.2348C97.5832 13.6713 91.394 11.1072 84.9401 11.106C78.4862 11.1047 72.2961 13.6665 67.7306 18.2282C67.1647 18.7655 66.636 19.3408 66.1482 19.9499L65.9342 20.164C53.7423 35.2256 59.8382 60.5402 59.8382 60.5402C59.8382 60.5402 85.2987 66.4935 100.072 54.4442L100.435 54.2302Z" fill="#FC92C3"/>
<path d="M102.156 52.6517C101.617 53.215 101.042 53.7424 100.434 54.2308L100.071 54.4449C85.3685 66.4369 60.0795 60.5971 59.8395 60.5412C60.0166 60.2529 73.5572 38.3192 92.7009 36.3029H93.0058C93.7797 36.2165 94.5587 36.1829 95.3371 36.2024C100.16 36.2024 104.836 37.6338 108.796 40.2616C107.857 44.9201 105.565 49.2396 102.156 52.6517Z" fill="#FD499C"/>
<path d="M84.1832 25.0433C84.2004 25.8219 84.1668 26.6007 84.0827 27.3748L83.9822 27.7833C82.0657 46.6194 60.1366 60.3586 59.8445 60.5409C59.8403 60.5401 59.8382 60.5396 59.8382 60.5396C59.8382 60.5396 53.7423 35.2249 65.9342 20.1632L66.1482 19.9493C66.636 19.3401 67.1647 18.7648 67.7306 18.2276C71.1436 14.8176 75.4645 12.525 80.1247 11.5854C82.752 15.5452 84.1832 20.2205 84.1832 25.0433Z" fill="#F73D93"/>
<path d="M53.5283 19.9483C53.0399 19.3407 52.5125 18.7656 51.9492 18.2266C49.6891 15.9646 47.0056 14.17 44.0518 12.9455C41.098 11.7209 37.9318 11.0902 34.7342 11.0896C31.5367 11.089 28.3703 11.7184 25.4159 12.9419C22.4617 14.1654 19.7775 15.9588 17.5165 18.22C15.2556 20.4812 13.4623 23.1655 12.2391 26.12C11.016 29.0743 10.3868 32.2409 10.3878 35.4384C10.3887 38.636 11.0196 41.802 12.2444 44.7557C13.4692 47.7094 15.2641 50.3929 17.5263 52.6528C18.0637 53.2175 18.639 53.7452 19.2482 54.2319L19.4621 54.4458C34.5238 66.6378 59.8383 60.5419 59.8383 60.5419C59.8383 60.5419 65.7949 35.0716 53.7456 20.3083L53.5283 19.9483Z" fill="#FF9BB3"/>
<path d="M59.8382 60.5413C59.8942 60.3002 65.7368 35.0024 53.7449 20.3094L53.5277 19.9496C53.0392 19.342 52.5118 18.7668 51.9486 18.2277C49.6885 15.9658 47.005 14.1712 44.0511 12.9466C42.5995 12.3448 41.0968 11.8865 39.5641 11.5759C36.9327 15.5378 35.4991 20.2168 35.4991 25.0436C35.4798 25.8222 35.5133 26.601 35.5995 27.3749V27.6798C37.6162 46.8244 59.5518 60.3654 59.8382 60.5413Z" fill="#F94F82"/>
<path d="M59.8384 60.5408C59.6323 60.2102 45.9007 38.3026 27.0813 36.4038L26.6727 36.3033C25.8986 36.2192 25.1199 36.1857 24.3414 36.2028C19.5139 36.2028 14.8342 37.6368 10.8719 40.2689C11.1826 41.8025 11.6413 43.3062 12.2436 44.7584C13.4684 47.7123 15.2633 50.3956 17.5255 52.6555C18.0629 53.2202 18.6382 53.7479 19.2474 54.2346L19.4613 54.4487C34.523 66.6406 59.8375 60.5446 59.8375 60.5446C59.8375 60.5446 59.8379 60.5433 59.8384 60.5408Z" fill="#FA6A8B"/>
<path d="M90.6062 61.1803L88.4013 58.9754C88.3134 58.8874 88.209 58.8177 88.094 58.7701C87.9792 58.7225 87.8561 58.698 87.7317 58.698C87.6074 58.698 87.4842 58.7225 87.3693 58.7701C87.2544 58.8177 87.15 58.8874 87.0622 58.9754L84.8572 61.1803C84.6796 61.3579 84.5799 61.5987 84.5799 61.8499C84.5799 62.1011 84.6796 62.3419 84.8572 62.5194C85.0348 62.6971 85.2756 62.7968 85.5268 62.7968C85.778 62.7968 86.0188 62.6971 86.1963 62.5194L86.7671 61.9488C86.4262 68.4744 83.7274 74.6541 79.1724 79.3391C74.6173 84.0242 68.516 86.896 62.0027 87.4204C55.4893 87.9448 49.0071 86.0861 43.7613 82.1901C38.5153 78.294 34.8627 72.6256 33.4822 66.2387C33.4601 66.1159 33.4136 65.9988 33.3454 65.8943C33.277 65.7899 33.1885 65.7002 33.0849 65.6306C32.9812 65.5611 32.8647 65.5131 32.7422 65.4895C32.6197 65.4659 32.4937 65.4672 32.3716 65.4933C32.2497 65.5194 32.1341 65.5698 32.0319 65.6415C31.9298 65.7131 31.8431 65.8046 31.777 65.9104C31.7109 66.0163 31.6668 66.1343 31.6472 66.2575C31.6277 66.3808 31.6331 66.5067 31.6631 66.6278C33.141 73.4692 37.0577 79.539 42.6823 83.7045C48.3069 87.87 55.2551 89.8467 62.23 89.2654C69.2049 88.6842 75.7301 85.5848 80.5876 80.5458C85.4452 75.5067 88.3032 68.8723 88.6283 61.8807L89.2767 62.5293C89.4089 62.6633 89.5778 62.7548 89.7622 62.7924C89.9466 62.83 90.1379 62.8118 90.3119 62.7401C90.4859 62.6685 90.6346 62.5465 90.739 62.3901C90.8434 62.2335 90.8987 62.0494 90.8981 61.8613C90.8977 61.7339 90.8716 61.6081 90.8215 61.4911C90.7714 61.3741 90.6981 61.2684 90.6062 61.1803Z" fill="white"/>
<path d="M87.9372 54.0995C86.3784 47.3094 82.413 41.3136 76.7746 37.2216C71.1362 33.1295 64.2064 31.2181 57.2675 31.8411C50.3287 32.4641 43.8503 35.5792 39.0309 40.6102C34.2116 45.6412 31.3775 52.2473 31.0531 59.2067L30.4046 58.5581C30.227 58.3806 29.9862 58.2807 29.735 58.2807C29.484 58.2807 29.243 58.3806 29.0655 58.5581C28.8878 58.7358 28.7881 58.9766 28.7881 59.2277C28.7881 59.4789 28.8878 59.7197 29.0655 59.8973L31.2704 62.1023C31.3584 62.1901 31.4628 62.2599 31.5776 62.3075C31.6925 62.3551 31.8157 62.3797 31.94 62.3797C32.0643 62.3797 32.1875 62.3551 32.3024 62.3075C32.4172 62.2599 32.5216 62.1901 32.6095 62.1023L34.8145 59.8973C34.992 59.7197 35.0919 59.4789 35.0919 59.2277C35.0919 58.9766 34.992 58.7358 34.8145 58.5581C34.6369 58.3806 34.396 58.2807 34.1449 58.2807C33.8937 58.2807 33.6529 58.3806 33.4754 58.5581L32.9047 59.1288C33.2405 52.6277 35.9166 46.4677 40.4394 41.7857C44.962 37.1036 51.0257 34.2157 57.5111 33.655C63.9966 33.0943 70.466 34.8986 75.7252 38.735C80.9843 42.5713 84.678 48.1807 86.1246 54.5276C86.1474 54.6512 86.1948 54.7688 86.2643 54.8735C86.3336 54.9781 86.4235 55.0676 86.5284 55.1366C86.6333 55.2057 86.7511 55.2527 86.8748 55.2751C86.9983 55.2972 87.1252 55.2943 87.2476 55.2664C87.37 55.2382 87.4854 55.1858 87.587 55.1119C87.6887 55.038 87.7742 54.9445 87.8386 54.8366C87.903 54.7288 87.945 54.6091 87.962 54.4847C87.9789 54.3603 87.9705 54.2337 87.9372 54.1125V54.0995Z" fill="white"/>
<defs>
<linearGradient id="paint0_linear_3806_44312" x1="359.683" y1="32.8464" x2="359.683" y2="87.7157" gradientUnits="userSpaceOnUse">
<stop stop-color="#E252D9"/>
<stop offset="1" stop-color="#4031F2"/>
</linearGradient>
<linearGradient id="paint1_linear_3806_44312" x1="359.683" y1="32.8464" x2="359.683" y2="87.7157" gradientUnits="userSpaceOnUse">
<stop stop-color="#E252D9"/>
<stop offset="1" stop-color="#4031F2"/>
</linearGradient>
<linearGradient id="paint2_linear_3806_44312" x1="359.683" y1="32.8464" x2="359.683" y2="87.7157" gradientUnits="userSpaceOnUse">
<stop stop-color="#E252D9"/>
<stop offset="1" stop-color="#4031F2"/>
</linearGradient>
<linearGradient id="paint3_linear_3806_44312" x1="372.463" y1="32.8464" x2="372.463" y2="87.7157" gradientUnits="userSpaceOnUse">
<stop stop-color="#E252D9"/>
<stop offset="1" stop-color="#4031F2"/>
</linearGradient>
<linearGradient id="paint4_linear_3806_44312" x1="372.463" y1="32.8464" x2="372.463" y2="87.7157" gradientUnits="userSpaceOnUse">
<stop stop-color="#E252D9"/>
<stop offset="1" stop-color="#4031F2"/>
</linearGradient>
</defs>
</svg>
