<svg width="40" height="40" viewBox="0 0 40 40" fill="none" xmlns="http://www.w3.org/2000/svg">
<path d="M28.0275 8.89107C28.0555 8.63302 28.0667 8.37345 28.061 8.11396C28.061 5.962 27.2061 3.89817 25.6844 2.37651C24.1628 0.854859 22.099 0 19.947 0C17.7951 0 15.7312 0.854859 14.2096 2.37651C12.6879 3.89817 11.8331 5.962 11.8331 8.11396C11.8266 8.37345 11.8378 8.6331 11.8666 8.89107V8.9927C12.5432 15.4162 19.947 19.9471 19.947 19.9471C19.947 19.9471 27.3508 15.3481 27.994 9.02725L28.0275 8.89107Z" fill="#FB90B7"/>
<path d="M11.8664 31.0023C11.8384 31.2603 11.8272 31.5199 11.8329 31.7794C11.8329 33.9314 12.6877 35.9952 14.2094 37.5169C15.731 39.0385 17.7949 39.8933 19.9468 39.8933C22.0987 39.8933 24.1626 39.0385 25.6842 37.5169C27.2059 35.9952 28.0607 33.9314 28.0607 31.7794C28.0672 31.5199 28.056 31.2603 28.0272 31.0023V30.9007C27.3506 24.4772 19.9468 19.9463 19.9468 19.9463C19.9468 19.9463 12.543 24.5442 11.9009 30.8629L11.8664 31.0023Z" fill="#FFB1C4"/>
<path d="M31.0021 28.0279C31.2601 28.056 31.5197 28.0671 31.7792 28.0615C33.9312 28.0615 35.995 27.2066 37.5166 25.6849C39.0383 24.1633 39.8931 22.0995 39.8931 19.9475C39.8931 17.7955 39.0383 15.7317 37.5166 14.2101C35.995 12.6884 33.9312 11.8336 31.7792 11.8336C31.5197 11.8271 31.2601 11.8383 31.0021 11.8671H30.9005C24.477 12.5437 19.946 19.9475 19.946 19.9475C19.946 19.9475 24.544 27.3513 30.8626 27.9933L31.0021 28.0279Z" fill="#FC92B2"/>
<path d="M8.89107 11.8672C8.63302 11.8392 8.37345 11.828 8.11396 11.8337C5.962 11.8337 3.89817 12.6886 2.37651 14.2102C0.854859 15.7319 0 17.7957 0 19.9477C0 22.0996 0.854859 24.1634 2.37651 25.6851C3.89817 27.2068 5.962 28.0616 8.11396 28.0616C8.37345 28.0681 8.6331 28.0569 8.89107 28.0281H8.9927C15.4162 27.3515 19.9471 19.9477 19.9471 19.9477C19.9471 19.9477 15.3481 12.5384 9.02725 11.9007L8.89107 11.8672Z" fill="#FF9BB3"/>
<path d="M6.41574 22.0495C6.2132 22.2123 6.02146 22.3881 5.84179 22.5758C4.36263 24.1062 3.54399 26.1564 3.56231 28.2847C3.5806 30.4129 4.43437 32.4488 5.93959 33.9534C7.44481 35.4581 9.48099 36.3111 11.6092 36.3286C13.7375 36.3461 15.7874 35.5267 17.3172 34.047C17.5055 33.8678 17.6813 33.676 17.8436 33.473L17.9149 33.4017C21.9789 28.3811 19.9469 19.9429 19.9469 19.9429C19.9469 19.9429 11.4568 17.9628 6.53569 21.9792L6.41574 22.0495Z" fill="#FFB1C4"/>
<path d="M19.9439 19.9422C19.7583 19.8995 11.4022 18.0076 6.53588 21.9792L6.41593 22.0495C6.2134 22.2123 6.02166 22.3881 5.84199 22.5759C4.72251 23.7341 3.98137 25.1901 3.69507 26.7524C5.00057 27.6001 6.53349 28.0612 8.11394 28.0612C8.37343 28.0676 8.63308 28.0564 8.89106 28.0277H8.99264C15.4162 27.3511 19.9471 19.9472 19.9471 19.9472C19.9471 19.9472 19.946 19.9455 19.9439 19.9422Z" fill="#FF749E"/>
<path d="M19.9477 19.9468C19.9471 19.9465 19.9468 19.9463 19.9468 19.9463C19.9468 19.9463 12.543 24.5442 11.9009 30.8629L11.8664 31.0023C11.8384 31.2603 11.8272 31.5199 11.8329 31.7794C11.8329 33.3589 12.2934 34.8909 13.14 36.1958C14.7027 35.9091 16.159 35.1673 17.3171 34.0471C17.5054 33.8679 17.6812 33.6762 17.8435 33.4732L17.9148 33.4018C21.9291 28.4427 19.9957 20.1491 19.9477 19.9468Z" fill="#FE6E99"/>
<path d="M22.0492 33.4784C22.212 33.6809 22.3878 33.8726 22.5756 34.0523C24.1059 35.5314 26.1561 36.3501 28.2843 36.3318C30.4126 36.3135 32.4484 35.4597 33.9531 33.9545C35.4578 32.4493 36.3108 30.4131 36.3283 28.2849C36.3458 26.1566 35.5263 24.1067 34.0466 22.5769C33.8675 22.3886 33.6757 22.2128 33.4727 22.0506L33.4014 21.9792C28.3808 17.9152 19.9426 19.9472 19.9426 19.9472C19.9426 19.9472 17.9582 28.4341 21.9746 33.3584L22.0492 33.4784Z" fill="#FC92B2"/>
<path d="M22.5756 34.0525C22.3878 33.8728 22.212 33.6811 22.0492 33.4785L21.9746 33.3586C17.9929 28.4768 19.9088 20.0938 19.9422 19.9493C19.9453 19.9473 19.947 19.9463 19.947 19.9463C19.947 19.9463 27.3508 24.4772 28.0274 30.9007V31.0023C28.0561 31.2603 28.0673 31.5199 28.0609 31.7794C28.0609 33.3603 27.5996 34.8936 26.7515 36.1993C25.1894 35.9129 23.7336 35.1718 22.5756 34.0525Z" fill="#FF5E9C"/>
<path fill-rule="evenodd" clip-rule="evenodd" d="M31.7792 28.0612C31.5197 28.0669 31.2601 28.0557 31.0021 28.0277L30.8626 27.9931C24.544 27.3511 19.946 19.9472 19.946 19.9472C19.946 19.9472 19.9463 19.9469 19.9466 19.9463C20.1501 19.8981 28.4428 17.9652 33.4015 21.9792L33.4729 22.0506C33.6759 22.2128 33.8677 22.3886 34.0468 22.5769C35.1671 23.7351 35.9089 25.1913 36.1956 26.754C34.8906 27.6007 33.3586 28.0612 31.7792 28.0612Z" fill="#FF5194"/>
<path d="M33.4783 17.8428C33.6809 17.68 33.8726 17.5041 34.0523 17.3164C35.5727 15.7944 36.4264 13.7309 36.4258 11.5797C36.4252 9.42838 35.5703 7.3654 34.049 5.84429C32.5278 4.32314 30.4647 3.46844 28.3134 3.46802C26.1621 3.4676 24.0988 4.32154 22.5769 5.8421C22.3883 6.02119 22.212 6.21297 22.0494 6.41601L21.9781 6.48737C17.9141 11.5079 19.9461 19.9461 19.9461 19.9461C19.9461 19.9461 28.4329 21.9305 33.3573 17.9141L33.4783 17.8428Z" fill="#FC92C3"/>
<path d="M34.0521 17.3167C33.8725 17.5044 33.6807 17.6802 33.4782 17.8431L33.3572 17.9144C28.4562 21.9118 20.0266 19.9651 19.9465 19.9465C20.0056 19.8504 24.5191 12.5392 30.9004 11.8671H31.002C31.26 11.8383 31.5196 11.8271 31.7791 11.8336C33.3869 11.8336 34.9455 12.3107 36.2655 13.1866C35.9522 14.7395 35.1883 16.1793 34.0521 17.3167Z" fill="#FD499C"/>
<path d="M28.0611 8.11388C28.0668 8.37341 28.0557 8.63302 28.0276 8.89104L27.9941 9.02721C27.3553 15.3059 20.0456 19.8857 19.9482 19.9464C19.9468 19.9461 19.9461 19.946 19.9461 19.946C19.9461 19.946 17.9141 11.5078 21.9781 6.4872L22.0494 6.41587C22.212 6.21283 22.3883 6.02105 22.5769 5.84197C23.7146 4.7053 25.1549 3.94113 26.7083 3.62793C27.584 4.94785 28.0611 6.50628 28.0611 8.11388Z" fill="#F73D93"/>
<path d="M17.8428 6.41555C17.68 6.21302 17.5042 6.02132 17.3165 5.84165C16.5631 5.08765 15.6686 4.48945 14.684 4.08127C13.6994 3.67308 12.644 3.46286 11.5781 3.46265C10.5123 3.46244 9.4568 3.67224 8.47203 4.08009C7.48729 4.4879 6.59254 5.08572 5.83888 5.83946C5.08526 6.59317 4.48748 7.48796 4.07976 8.47278C3.67203 9.45756 3.46231 10.5131 3.46265 11.5789C3.46294 12.6448 3.67325 13.7001 4.08152 14.6847C4.48979 15.6693 5.08807 16.5638 5.84215 17.317C6.02128 17.5053 6.21306 17.6812 6.4161 17.8434L6.48742 17.9147C11.508 21.9787 19.9462 19.9467 19.9462 19.9467C19.9462 19.9467 21.9317 11.4567 17.9152 6.53555L17.8428 6.41555Z" fill="#FF9BB3"/>
<path d="M19.9461 19.9465C19.9648 19.8662 21.9123 11.4336 17.915 6.53593L17.8426 6.41598C17.6798 6.21344 17.504 6.0217 17.3162 5.84203C16.5629 5.08803 15.6684 4.48984 14.6838 4.08165C14.1999 3.88105 13.699 3.72827 13.1881 3.62476C12.3109 4.94539 11.8331 6.50504 11.8331 8.11399C11.8266 8.37351 11.8378 8.63313 11.8666 8.8911V8.99272C12.5388 15.3743 19.8507 19.8879 19.9461 19.9465Z" fill="#F94F82"/>
<path d="M19.9462 19.9464C19.8775 19.8362 15.3003 12.5336 9.02713 11.9007L8.89096 11.8672C8.6329 11.8392 8.37333 11.828 8.11384 11.8337C6.50468 11.8337 4.94478 12.3117 3.62402 13.1891C3.72758 13.7003 3.88048 14.2015 4.08126 14.6856C4.48952 15.6702 5.08781 16.5647 5.84189 17.3179C6.02101 17.5062 6.21279 17.6821 6.41583 17.8443L6.48716 17.9157C11.5077 21.9797 19.9459 19.9477 19.9459 19.9477C19.9459 19.9477 19.946 19.9472 19.9462 19.9464Z" fill="#FA6A8B"/>
<path d="M30.2021 20.1595L29.4672 19.4245C29.4379 19.3952 29.4031 19.3719 29.3647 19.3561C29.3264 19.3402 29.2854 19.332 29.2439 19.332C29.2025 19.332 29.1614 19.3402 29.1231 19.3561C29.0849 19.3719 29.0501 19.3952 29.0208 19.4245L28.2858 20.1595C28.2266 20.2187 28.1933 20.2989 28.1933 20.3827C28.1933 20.4664 28.2266 20.5467 28.2858 20.6058C28.345 20.6651 28.4253 20.6983 28.509 20.6983C28.5927 20.6983 28.673 20.6651 28.7322 20.6058L28.9224 20.4156C28.8088 22.5908 27.9092 24.6507 26.3909 26.2124C24.8725 27.7741 22.8387 28.7314 20.6676 28.9062C18.4965 29.081 16.3357 28.4614 14.5871 27.1627C12.8385 25.864 11.6209 23.9746 11.1608 21.8456C11.1534 21.8047 11.1379 21.7656 11.1152 21.7308C11.0924 21.696 11.0629 21.6661 11.0283 21.6429C10.9938 21.6197 10.955 21.6037 10.9141 21.5959C10.8733 21.588 10.8313 21.5884 10.7906 21.5971C10.7499 21.6058 10.7114 21.6226 10.6774 21.6465C10.6433 21.6704 10.6144 21.7009 10.5924 21.7362C10.5703 21.7715 10.5556 21.8108 10.5491 21.8519C10.5426 21.893 10.5444 21.9349 10.5544 21.9753C11.047 24.2558 12.3526 26.279 14.2275 27.6675C16.1024 29.056 18.4184 29.7149 20.7434 29.5212C23.0683 29.3274 25.2434 28.2943 26.8626 26.6146C28.4818 24.9349 29.4345 22.7235 29.5428 20.3929L29.759 20.6091C29.803 20.6538 29.8593 20.6843 29.9208 20.6968C29.9823 20.7094 30.046 20.7033 30.104 20.6794C30.162 20.6555 30.2116 20.6149 30.2464 20.5627C30.2812 20.5105 30.2996 20.4492 30.2994 20.3865C30.2993 20.344 30.2906 20.3021 30.2739 20.2631C30.2572 20.2241 30.2328 20.1888 30.2021 20.1595Z" fill="white"/>
<path d="M29.3124 17.7993C28.7928 15.5359 27.471 13.5373 25.5916 12.1733C23.7121 10.8093 21.4022 10.1722 19.0892 10.3798C16.7763 10.5875 14.6168 11.6258 13.0103 13.3028C11.4039 14.9798 10.4592 17.1819 10.3511 19.5017L10.1349 19.2855C10.0757 19.2263 9.99543 19.193 9.91171 19.193C9.82803 19.193 9.74771 19.2263 9.68853 19.2855C9.62931 19.3447 9.59607 19.425 9.59607 19.5087C9.59607 19.5924 9.62931 19.6727 9.68853 19.7319L10.4235 20.4669C10.4528 20.4962 10.4876 20.5194 10.5259 20.5353C10.5642 20.5511 10.6053 20.5593 10.6467 20.5593C10.6881 20.5593 10.7292 20.5511 10.7675 20.5353C10.8058 20.5194 10.8406 20.4962 10.8699 20.4669L11.6049 19.7319C11.6641 19.6727 11.6973 19.5924 11.6973 19.5087C11.6973 19.425 11.6641 19.3447 11.6049 19.2855C11.5457 19.2263 11.4654 19.193 11.3817 19.193C11.2979 19.193 11.2177 19.2263 11.1585 19.2855L10.9683 19.4757C11.0802 17.3087 11.9723 15.2553 13.4798 13.6947C14.9874 12.134 17.0086 11.1713 19.1704 10.9844C21.3323 10.7975 23.4887 11.399 25.2418 12.6778C26.9948 13.9566 28.226 15.8263 28.7082 17.942C28.7158 17.9832 28.7316 18.0224 28.7548 18.0573C28.7779 18.0922 28.8079 18.122 28.8429 18.145C28.8778 18.168 28.9171 18.1837 28.9583 18.1911C28.9995 18.1985 29.0418 18.1976 29.0826 18.1882C29.1234 18.1789 29.1619 18.1614 29.1957 18.1367C29.2296 18.1121 29.2581 18.0809 29.2796 18.045C29.3011 18.0091 29.3151 17.9691 29.3207 17.9277C29.3264 17.8862 29.3235 17.844 29.3124 17.8036V17.7993Z" fill="white"/>
</svg>
